<svg width="31" height="31" viewBox="0 0 31 31" fill="none" xmlns="http://www.w3.org/2000/svg">
<path d="M18.4749 15.5C18.4749 17.143 17.1431 18.4748 15.5001 18.4748C13.8572 18.4748 12.5254 17.143 12.5254 15.5C12.5254 13.8571 13.8572 12.5253 15.5001 12.5253C17.1431 12.5253 18.4749 13.8571 18.4749 15.5Z" fill="#606D7D"/>
<path fill-rule="evenodd" clip-rule="evenodd" d="M22.3447 10.3408C22.2024 9.95525 21.9754 9.60624 21.6804 9.31976C21.3939 9.02479 21.0452 8.79778 20.6593 8.65548C20.3464 8.53395 19.8764 8.3893 19.0106 8.34989C18.074 8.30718 17.7931 8.29797 15.422 8.29797C13.0507 8.29797 12.7699 8.30694 11.8335 8.34965C10.9677 8.3893 10.4974 8.53395 10.1847 8.65548C9.79888 8.79778 9.44987 9.02479 9.16363 9.31976C8.86865 9.60624 8.64164 9.95502 8.49911 10.3408C8.37758 10.6538 8.23293 11.1241 8.19352 11.9899C8.1508 12.9262 8.1416 13.207 8.1416 15.5784C8.1416 17.9495 8.1508 18.2303 8.19352 19.1669C8.23293 20.0327 8.37758 20.5028 8.49911 20.8157C8.64164 21.2015 8.86842 21.5503 9.16339 21.8368C9.44987 22.1318 9.79865 22.3588 10.1845 22.5011C10.4974 22.6228 10.9677 22.7675 11.8335 22.8069C12.7699 22.8496 13.0504 22.8586 15.4218 22.8586C17.7934 22.8586 18.0742 22.8496 19.0103 22.8069C19.8761 22.7675 20.3464 22.6228 20.6593 22.5011C21.4338 22.2023 22.046 21.5902 22.3447 20.8157C22.4662 20.5028 22.6109 20.0327 22.6505 19.1669C22.6932 18.2303 22.7022 17.9495 22.7022 15.5784C22.7022 13.207 22.6932 12.9262 22.6505 11.9899C22.6111 11.1241 22.4665 10.6538 22.3447 10.3408ZM15.422 20.1382C12.9034 20.1382 10.8617 18.0968 10.8617 15.5782C10.8617 13.0596 12.9034 11.0181 15.422 11.0181C17.9404 11.0181 19.982 13.0596 19.982 15.5782C19.982 18.0968 17.9404 20.1382 15.422 20.1382ZM19.0967 10.8378C19.0967 11.4263 19.5738 11.9035 20.1624 11.9035C20.7509 11.9035 21.2278 11.4263 21.228 10.8378C21.228 10.2493 20.7509 9.77214 20.1624 9.77214C19.5738 9.77214 19.0967 10.2493 19.0967 10.8378Z" fill="#606D7D"/>
<path fill-rule="evenodd" clip-rule="evenodd" d="M0 15.5C0 6.9409 6.9409 0 15.5 0C24.0591 0 31 6.9409 31 15.5C31 24.0591 24.0591 31 15.5 31C6.9409 31 0 24.0591 0 15.5ZM23.933 21.33C24.153 20.7638 24.3037 20.1169 24.3467 19.1695C24.3902 18.2204 24.4004 17.9171 24.4004 15.5C24.4004 13.0829 24.3902 12.7796 24.3469 11.8305C24.3037 10.8831 24.1532 10.2362 23.933 9.67C23.7098 9.07612 23.3593 8.53829 22.9066 8.09365C22.4619 7.64073 21.9239 7.29022 21.33 7.06672C20.7638 6.847 20.1169 6.69658 19.1695 6.65353C18.2204 6.61002 17.9171 6.59961 15.5 6.59961C13.0829 6.59961 12.7796 6.61002 11.8305 6.6533C10.8831 6.69658 10.2362 6.847 9.67 7.06696C9.07612 7.29046 8.53806 7.64073 8.09365 8.09365C7.64073 8.53806 7.29022 9.07612 7.06672 9.67C6.84676 10.2362 6.69634 10.8831 6.6533 11.8305C6.60978 12.7796 6.59961 13.0829 6.59961 15.5C6.59961 17.9171 6.60978 18.2204 6.65353 19.1697C6.69658 20.1169 6.84724 20.764 7.06719 21.33C7.2907 21.9239 7.64097 22.4619 8.09365 22.9063C8.53829 23.3593 9.07612 23.7095 9.67023 23.933C10.2362 24.153 10.8833 24.3034 11.8305 24.3467C12.7799 24.39 13.0829 24.4004 15.5002 24.4004C17.9174 24.4004 18.2206 24.39 19.1697 24.3467C20.1169 24.3034 20.764 24.153 21.33 23.933C22.5256 23.4707 23.4707 22.5256 23.933 21.33Z" fill="#606D7D"/>
</svg>
