<svg width="31" height="31" viewBox="0 0 31 31" fill="none" xmlns="http://www.w3.org/2000/svg">
<path fill-rule="evenodd" clip-rule="evenodd" d="M0 15.5C0 6.9409 6.9409 0 15.5 0C24.0591 0 31 6.9409 31 15.5C31 24.0591 24.0591 31 15.5 31C6.9409 31 0 24.0591 0 15.5ZM7.22092 23.4316H10.9959V12.0746H7.22092V23.4316ZM9.10852 10.5238H9.08392C7.81717 10.5238 6.99789 9.65179 6.99789 8.56194C6.99789 7.4475 7.84224 6.59961 9.13359 6.59961C10.4249 6.59961 11.2196 7.4475 11.2442 8.56194C11.2442 9.65179 10.4249 10.5238 9.10852 10.5238ZM20.8331 23.4316H24.6076V16.9195C24.6076 13.4312 22.7453 11.8081 20.2617 11.8081C18.2589 11.8081 17.3613 12.9088 16.8597 13.6826V12.0746H13.085C13.1344 13.1401 13.085 23.4316 13.085 23.4316H16.8597V17.0894C16.8597 16.75 16.8841 16.4108 16.9839 16.1681C17.2568 15.4901 17.8779 14.7876 18.9207 14.7876C20.2865 14.7876 20.8331 15.829 20.8331 17.3559V23.4316Z" fill="#606D7D"/>
</svg>
