<svg width="16" height="17" viewBox="0 0 16 17" fill="none" xmlns="http://www.w3.org/2000/svg">
<path d="M9.69077 6.74918C9.5026 6.55601 9.29397 6.38478 9.06874 6.23862C8.47218 5.84877 7.77866 5.64161 7.07028 5.64161C6.08707 5.63974 5.14382 6.03842 4.4498 6.74918L1.08287 10.188C0.390033 10.8965 0.000621147 11.8563 7.6723e-07 12.8572C-0.00130203 14.946 1.65672 16.6402 3.70336 16.6416C4.68505 16.6451 5.62743 16.2483 6.3212 15.5394L9.1005 12.703C9.151 12.6519 9.1792 12.5822 9.1788 12.5096C9.17796 12.3604 9.05875 12.2402 8.91256 12.241H8.80669C8.22602 12.2431 7.65052 12.1293 7.11265 11.9061C7.01355 11.8645 6.89965 11.8879 6.82415 11.9655L4.82569 14.0077C4.20512 14.6411 3.19899 14.6411 2.57842 14.0077C1.95786 13.3744 1.95786 12.3476 2.57842 11.7143L5.95859 8.26734C6.57866 7.63531 7.58315 7.63531 8.20322 8.26734C8.62111 8.66872 9.27294 8.66872 9.6908 8.26734C9.87058 8.0837 9.97958 7.84013 9.99785 7.58118C10.0172 7.27174 9.90535 6.96869 9.69077 6.74918Z" fill="#3B455B"/>
<path d="M14.9151 1.74934C13.4686 0.272355 11.1234 0.272355 9.67691 1.74934L6.9017 4.58033C6.82549 4.65852 6.80351 4.77612 6.84614 4.87748C6.88827 4.97913 6.98674 5.04438 7.09481 5.04226H7.19269C7.77238 5.04118 8.34664 5.15587 8.88321 5.37993C8.98226 5.42156 9.09611 5.39807 9.17157 5.32051L11.1637 3.2891C11.7839 2.65579 12.7895 2.65579 13.4098 3.2891C14.03 3.92242 14.03 4.94922 13.4098 5.58253L10.9282 8.11367L10.907 8.13798L10.0393 9.01863C9.41956 9.65065 8.41559 9.65065 7.79585 9.01863C7.37818 8.61726 6.72669 8.61726 6.30905 9.01863C6.12821 9.20366 6.01917 9.44934 6.00215 9.71016C5.98281 10.0196 6.09457 10.3226 6.30905 10.5422C6.61526 10.8562 6.97353 11.1122 7.36727 11.2985C7.42282 11.3255 7.47838 11.3472 7.53394 11.3715C7.58949 11.3958 7.64769 11.4147 7.70324 11.4363C7.7588 11.4579 7.81699 11.4768 7.87255 11.493L8.02865 11.5362C8.13446 11.5633 8.2403 11.5849 8.34875 11.6038C8.4794 11.6236 8.61097 11.6362 8.74295 11.6416H8.92813H8.94401L9.10274 11.6227C9.16093 11.62 9.22179 11.6065 9.29059 11.6065H9.38052L9.56307 11.5795L9.64774 11.5633L9.80117 11.5309H9.83028C10.4801 11.3642 11.0735 11.0206 11.5472 10.5368L14.915 7.09798C16.3616 5.621 16.3616 3.22633 14.9151 1.74934Z" fill="#3B455B"/>
</svg>
