<svg width="18" height="12" viewBox="0 0 18 12" fill="none" xmlns="http://www.w3.org/2000/svg">
<path fill-rule="evenodd" clip-rule="evenodd" d="M15.5526 3.01913L9.23684 8.0806C9.12126 8.17282 8.98168 8.21892 8.8421 8.21892C8.70189 8.21892 8.56232 8.17282 8.44674 8.0806L2.13095 3.01913C1.85874 2.80124 1.81516 2.40334 2.03305 2.13113C2.25158 1.85955 2.64947 1.81597 2.92105 2.03324L8.8421 6.77829L14.7625 2.03324C15.0347 1.81534 15.432 1.85892 15.6505 2.13113C15.8684 2.40334 15.8248 2.80124 15.5526 3.01913ZM16.4211 0.000183105H1.26316C0.565263 0.000183105 0 0.565446 0 1.26334V10.737C0 11.4343 0.565263 12.0002 1.26316 12.0002H16.4211C17.1183 12.0002 17.6842 11.4343 17.6842 10.737V1.26334C17.6842 0.565446 17.1183 0.000183105 16.4211 0.000183105Z" fill="#3B455B"/>
<mask id="mask0" mask-type="alpha" maskUnits="userSpaceOnUse" x="0" y="0" width="18" height="13">
<path fill-rule="evenodd" clip-rule="evenodd" d="M15.5526 3.01913L9.23684 8.0806C9.12126 8.17282 8.98168 8.21892 8.8421 8.21892C8.70189 8.21892 8.56232 8.17282 8.44674 8.0806L2.13095 3.01913C1.85874 2.80124 1.81516 2.40334 2.03305 2.13113C2.25158 1.85955 2.64947 1.81597 2.92105 2.03324L8.8421 6.77829L14.7625 2.03324C15.0347 1.81534 15.432 1.85892 15.6505 2.13113C15.8684 2.40334 15.8248 2.80124 15.5526 3.01913ZM16.4211 0.000183105H1.26316C0.565263 0.000183105 0 0.565446 0 1.26334V10.737C0 11.4343 0.565263 12.0002 1.26316 12.0002H16.4211C17.1183 12.0002 17.6842 11.4343 17.6842 10.737V1.26334C17.6842 0.565446 17.1183 0.000183105 16.4211 0.000183105Z" fill="white"/>
</mask>
<g mask="url(#mask0)">
</g>
</svg>
