<svg width="24" height="24" viewBox="0 0 24 24" fill="none" xmlns="http://www.w3.org/2000/svg">
<path fill-rule="evenodd" clip-rule="evenodd" d="M16.551 15.844L23.8535 23.1465C24.0488 23.3418 24.0488 23.6582 23.8535 23.8535C23.7559 23.9512 23.6279 24 23.5 24C23.3721 24 23.2441 23.9512 23.1465 23.8535L15.844 16.551C14.1599 18.0678 11.9395 19 9.50001 19C4.26173 19 0 14.7383 0 9.50002C0 4.26173 4.26173 0 9.50001 0C14.7383 0 19 4.26173 19 9.49997C19 11.9395 18.0678 14.1599 16.551 15.844ZM1.00003 9.50002C1.00003 14.187 4.8135 18 9.50001 18C14.1865 18 18 14.187 18 9.50002C18 4.81298 14.1865 0.999984 9.50001 0.999984C4.8135 0.999984 1.00003 4.81303 1.00003 9.50002Z" fill="white"/>
</svg>
