<svg width="31" height="31" viewBox="0 0 31 31" fill="none" xmlns="http://www.w3.org/2000/svg">
<path fill-rule="evenodd" clip-rule="evenodd" d="M0 15.5C0 6.9409 6.9409 0 15.5 0C24.0591 0 31 6.9409 31 15.5C31 24.0591 24.0591 31 15.5 31C6.9409 31 0 24.0591 0 15.5ZM22.5873 12.545C22.5873 12.3911 22.584 12.2378 22.5771 12.0853C23.2718 11.5831 23.8756 10.9564 24.3517 10.2428C23.7143 10.5262 23.0284 10.717 22.3087 10.8031C23.0433 10.3625 23.6071 9.66574 23.8732 8.83535C23.1857 9.24286 22.4246 9.53897 21.6141 9.69885C20.9648 9.00729 20.0405 8.57471 19.0172 8.57471C17.0525 8.57471 15.4591 10.1681 15.4591 12.1321C15.4591 12.4112 15.4905 12.6827 15.5516 12.9433C12.5947 12.7945 9.97273 11.3788 8.21829 9.22607C7.91272 9.75183 7.73652 10.3625 7.73652 11.0143C7.73652 12.2487 8.36446 13.3383 9.31973 13.9757C8.73602 13.9577 8.18778 13.7974 7.70837 13.5308C7.7079 13.5457 7.7079 13.5601 7.7079 13.5762C7.7079 15.299 8.93421 16.7377 10.5621 17.0636C10.2632 17.1452 9.94861 17.1889 9.62388 17.1889C9.39517 17.1889 9.17214 17.1662 8.95526 17.1246C9.40842 18.5382 10.7215 19.5668 12.279 19.5957C11.0612 20.55 9.52715 21.1186 7.86021 21.1186C7.57333 21.1186 7.28999 21.1022 7.01161 21.0694C8.58607 22.0786 10.4557 22.6675 12.4649 22.6675C19.0089 22.6672 22.5873 17.2462 22.5873 12.545Z" fill="#606D7D"/>
</svg>
