<svg width="1295" height="108" viewBox="0 0 1295 108" fill="none" xmlns="http://www.w3.org/2000/svg">
<mask id="mask0" mask-type="alpha" maskUnits="userSpaceOnUse" x="1163" y="31" width="132" height="65">
<path fill-rule="evenodd" clip-rule="evenodd" d="M1163.4 96L1163.4 31L1294.4 31L1294.4 96L1163.4 96Z" fill="white"/>
</mask>
<g mask="url(#mask0)">
<path fill-rule="evenodd" clip-rule="evenodd" d="M1228.9 96L1294.4 96C1294.4 60.1012 1265.08 31 1228.9 31C1192.73 31 1163.4 60.1012 1163.4 96L1228.9 96Z" fill="#9FFFF1"/>
</g>
<mask id="mask1" mask-type="alpha" maskUnits="userSpaceOnUse" x="1081" y="31" width="136" height="67">
<path fill-rule="evenodd" clip-rule="evenodd" d="M1081 98L1081 31.1002L1216.1 31.1002L1216.1 98L1081 98Z" fill="white"/>
</mask>
<g mask="url(#mask1)">
<path fill-rule="evenodd" clip-rule="evenodd" d="M1123.25 98.0001L1081 98.0001C1081 61.0844 1111.2 31.1002 1148.57 31.1002C1185.82 31.1002 1216.1 61.0844 1216.1 98.0001L1173.81 98.0001C1173.81 84.1337 1162.53 72.9336 1148.57 72.9336C1134.53 72.9336 1123.25 84.1337 1123.25 98.0001Z" fill="#33CCFF"/>
</g>
<mask id="mask2" mask-type="alpha" maskUnits="userSpaceOnUse" x="0" y="0" width="108" height="108">
<path fill-rule="evenodd" clip-rule="evenodd" d="M0 0H107.434V107.434H0V0Z" fill="white"/>
</mask>
<g mask="url(#mask2)">
<path fill-rule="evenodd" clip-rule="evenodd" d="M0 107.434H63.096C63.083 83.619 81.974 63.92 105.953 63.119C106.448 63.102 106.941 63.097 107.434 63.097V0C48.1 0 0 48.1 0 107.434Z" fill="#F18B10"/>
</g>
</svg>
